<?xml version="1.0" standalone="no"?>
<!DOCTYPE svg PUBLIC "-//W3C//DTD SVG 20010904//EN"
 "http://www.w3.org/TR/2001/REC-SVG-20010904/DTD/svg10.dtd">
<svg version="1.0" xmlns="http://www.w3.org/2000/svg"
 width="417.000000pt" height="454.000000pt" viewBox="0 0 417.000000 454.000000"
 preserveAspectRatio="xMidYMid meet">

<g transform="translate(0.000000,454.000000) scale(0.100000,-0.100000)"
fill="#000000" stroke="none">
<path d="M1668 4526 c-26 -7 -53 -18 -61 -24 -8 -7 -48 -21 -90 -31 -87 -23
-129 -42 -175 -82 -18 -16 -39 -29 -46 -29 -7 0 -44 14 -82 32 -57 26 -82 31
-144 32 -90 0 -146 -22 -215 -85 -90 -83 -126 -179 -105 -279 15 -72 6 -90
-49 -90 -20 0 -57 -10 -81 -22 -60 -31 -86 -84 -100 -208 -18 -155 -20 -157
-129 -267 -80 -80 -102 -109 -121 -158 -32 -83 -39 -238 -15 -350 l17 -82 -44
-45 c-56 -55 -78 -117 -78 -214 0 -53 -4 -75 -16 -85 -31 -26 -77 -103 -100
-168 -42 -117 -28 -210 36 -248 16 -9 30 -21 30 -26 0 -5 -15 -34 -34 -65 -68
-112 -82 -226 -38 -324 10 -24 56 -83 102 -131 l83 -87 -6 -46 c-2 -25 0 -61
6 -79 8 -26 6 -53 -8 -117 -34 -157 -18 -243 71 -379 70 -106 121 -152 204
-184 66 -25 70 -29 81 -68 57 -215 78 -248 190 -308 l84 -44 105 0 c58 0 136
4 173 9 l68 9 102 -100 c106 -103 164 -138 281 -169 103 -28 253 -9 280 35 4
6 26 16 49 22 58 14 130 69 152 115 27 56 32 170 10 233 -18 47 -17 51 4 145
12 53 24 96 26 96 2 0 14 -43 26 -96 21 -94 22 -98 4 -145 -22 -63 -17 -177
10 -233 22 -46 94 -101 152 -115 23 -6 45 -16 49 -22 27 -44 177 -63 280 -35
117 31 175 66 281 169 l102 100 68 -9 c37 -5 115 -9 173 -9 l105 0 84 44 c112
60 133 93 190 308 11 39 15 43 81 68 83 32 134 78 204 184 89 136 105 222 71
379 -14 64 -16 91 -8 117 6 18 8 54 6 79 l-6 46 83 87 c46 48 92 107 102 131
44 98 30 212 -38 324 -19 31 -34 60 -34 65 0 5 14 17 30 26 64 38 78 131 36
248 -23 65 -69 142 -100 168 -12 10 -16 32 -16 85 0 97 -22 159 -78 214 l-44
45 17 82 c24 112 17 267 -15 350 -19 49 -41 78 -121 158 -109 110 -111 112
-129 267 -14 124 -40 177 -100 208 -24 12 -61 22 -81 22 -55 0 -64 18 -49 90
21 100 -15 196 -105 279 -69 63 -125 85 -215 85 -62 -1 -87 -6 -144 -32 -38
-18 -74 -32 -81 -32 -7 0 -32 15 -54 34 -41 35 -116 68 -181 80 -19 4 -58 18
-86 32 -32 16 -77 27 -121 31 -68 5 -72 4 -152 -37 -96 -50 -125 -81 -140
-150 -14 -67 -14 -93 5 -165 8 -33 17 -69 20 -80 4 -13 -10 -47 -36 -93 -23
-40 -43 -72 -45 -72 -2 0 -22 32 -45 72 -26 46 -40 80 -36 93 3 11 12 47 20
80 19 72 19 98 5 165 -15 68 -44 100 -138 149 -87 45 -134 51 -223 27z m169
-48 c83 -30 127 -78 143 -152 13 -66 1 -196 -19 -196 -4 0 -42 27 -85 60 -78
60 -106 72 -106 47 0 -21 21 -42 87 -86 70 -46 129 -118 168 -203 23 -49 25
-62 16 -95 -14 -52 -57 -112 -84 -119 -14 -3 -54 7 -100 25 -99 40 -177 41
-312 6 -115 -30 -142 -42 -126 -58 8 -8 42 -2 124 21 129 36 159 38 242 17
126 -33 205 -85 205 -134 0 -14 -5 -43 -11 -64 -9 -32 -6 -55 15 -138 16 -60
26 -127 26 -168 l0 -69 -37 -7 c-153 -28 -273 -172 -273 -326 0 -57 -1 -60
-22 -57 -26 3 -27 15 -8 88 16 62 4 135 -32 199 l-31 53 72 69 c68 65 70 69
44 69 -17 0 -55 -18 -93 -44 -122 -81 -147 -69 -50 24 59 57 159 116 235 140
22 7 43 15 47 19 4 3 2 27 -4 53 -9 38 -16 48 -32 48 -12 0 -45 3 -74 6 -58 7
-59 11 -26 76 16 31 18 58 5 58 -20 0 -81 -84 -81 -112 0 -23 -4 -28 -25 -28
-13 0 -49 -9 -79 -20 -66 -25 -126 -86 -180 -185 -22 -38 -54 -91 -73 -117
-35 -48 -90 -95 -99 -85 -10 10 55 134 103 197 25 34 73 85 107 112 57 48 184
118 213 118 16 0 16 21 1 71 -13 46 -14 46 -125 -6 -75 -35 -84 -35 -58 -1 18
23 19 46 4 46 -6 0 -24 -11 -41 -25 -37 -32 -61 -31 -127 1 -66 33 -86 62 -85
129 1 57 11 81 60 142 19 23 34 46 34 51 0 18 -44 0 -78 -32 -48 -44 -61 -74
-68 -156 l-7 -72 -36 6 c-20 3 -51 8 -68 12 -27 5 -33 3 -33 -10 0 -36 37 -56
103 -56 52 0 67 -4 83 -21 27 -29 61 -45 117 -53 65 -10 62 -30 -14 -112 -78
-84 -152 -200 -185 -291 -33 -91 -46 -93 -142 -15 -35 28 -46 32 -53 21 -34
-54 12 -100 124 -124 l28 -6 -8 -72 c-29 -258 28 -473 178 -674 l39 -53 -17
-60 -18 -60 -35 7 c-61 12 -121 5 -199 -23 -50 -18 -76 -24 -79 -16 -26 79
-138 149 -225 140 -49 -5 -34 -20 37 -38 79 -20 97 -35 132 -111 15 -33 32
-59 38 -59 6 0 44 17 85 37 67 34 82 38 152 38 48 0 83 -5 90 -12 7 -7 16 -42
20 -78 11 -87 27 -119 62 -123 15 -2 27 0 27 3 0 3 -11 31 -25 61 -32 70 -42
150 -25 209 7 25 15 45 17 45 3 0 22 -13 43 -30 21 -17 42 -30 47 -30 6 0 22
17 37 38 l27 37 -42 37 c-38 33 -41 38 -28 54 20 24 72 44 116 44 32 0 44 -7
93 -61 l56 -61 62 32 c75 40 93 37 166 -28 l55 -47 -5 -60 c-5 -53 -10 -64
-40 -92 -20 -17 -74 -48 -122 -68 -48 -21 -99 -46 -114 -57 -29 -20 -37 -38
-17 -38 15 0 181 66 231 91 l38 19 0 -22 c0 -13 -9 -95 -21 -183 -71 -553 -88
-728 -74 -755 13 -26 95 -70 128 -70 12 0 14 -9 10 -40 -8 -55 20 -53 49 5
l16 29 21 -34 c13 -21 21 -52 21 -77 0 -58 -50 -114 -128 -144 -47 -17 -70
-20 -134 -15 -149 11 -220 66 -252 195 l-11 46 -60 7 c-33 4 -70 10 -82 13
-57 14 -72 148 -27 237 38 74 19 78 -62 12 -38 -32 -94 -69 -124 -83 -50 -23
-67 -26 -175 -26 -215 0 -324 57 -398 207 -65 135 -73 184 -55 337 3 21 -5 27
-66 52 -81 33 -121 68 -148 127 -19 43 -19 44 0 80 28 55 36 106 17 122 -15
13 -14 14 -78 -65 l-25 -30 -53 17 c-29 10 -56 15 -61 12 -13 -8 -9 -61 6 -73
7 -6 40 -15 72 -19 l58 -7 18 -50 c22 -65 102 -141 164 -157 l45 -12 -7 -56
c-8 -71 12 -153 66 -267 59 -127 100 -177 173 -212 77 -37 196 -55 322 -49 81
4 102 10 163 40 l69 35 7 -70 c11 -122 58 -177 151 -177 35 0 47 -4 51 -17 28
-88 75 -147 147 -186 37 -20 56 -22 167 -21 91 0 137 5 169 17 54 21 51 21 51
-3 0 -31 -66 -96 -144 -143 -38 -23 -72 -48 -74 -56 -8 -25 62 -6 123 34 32
20 59 34 62 32 2 -3 12 -45 20 -95 21 -119 9 -167 -59 -234 -53 -54 -68 -59
-68 -24 0 41 -17 39 -47 -6 -51 -76 -145 -102 -267 -74 -38 9 -88 25 -110 35
-36 16 -238 182 -243 199 -1 4 46 37 103 75 l105 67 46 -40 c44 -38 94 -60
141 -60 39 0 24 24 -35 55 -106 55 -143 103 -157 207 -4 25 -13 52 -21 58 -22
18 -30 -32 -15 -97 11 -51 10 -58 -8 -82 -27 -36 -42 -36 -90 -2 -86 63 -98
131 -44 238 18 34 32 67 32 73 0 19 -38 10 -68 -15 -45 -37 -95 -55 -157 -55
-62 0 -74 -17 -30 -46 19 -12 37 -15 74 -10 l48 6 23 -81 c24 -82 61 -136 115
-167 l20 -12 -20 -16 c-151 -120 -437 -123 -566 -7 -52 47 -84 116 -113 245
-6 26 -5 26 62 33 37 4 74 9 83 11 13 3 18 -5 23 -37 17 -104 73 -142 203
-137 70 3 78 5 78 23 0 18 -9 21 -75 26 -41 3 -84 10 -95 16 -32 18 -63 56
-70 86 -6 24 -2 33 36 65 82 70 129 119 129 136 0 26 -13 19 -95 -48 -93 -78
-141 -96 -251 -96 -145 0 -233 45 -307 158 -67 100 -87 158 -87 251 0 43 5 92
11 110 9 26 15 30 33 25 77 -25 180 -32 191 -13 10 15 4 18 -62 27 -70 10
-106 30 -134 75 -16 26 -19 46 -17 112 l3 80 -50 27 c-149 80 -204 254 -131
415 43 94 50 98 127 73 35 -11 74 -20 87 -20 39 0 58 -16 142 -120 114 -140
159 -170 262 -170 75 0 56 20 -53 57 -83 28 -99 37 -137 80 -37 42 -88 130
-106 186 -5 15 -14 17 -71 11 -60 -6 -70 -4 -131 26 -82 40 -141 97 -149 144
-12 63 55 225 100 242 9 4 37 -14 72 -46 45 -41 61 -63 70 -98 13 -49 74 -144
107 -168 25 -17 66 -19 66 -2 0 6 -27 39 -59 73 -68 70 -86 119 -78 203 7 65
46 153 92 203 39 44 44 59 16 59 -43 0 -111 -94 -142 -197 -7 -24 -18 -43 -25
-43 -20 0 -62 69 -73 121 -18 82 7 166 69 224 l32 30 21 -26 c27 -33 64 -53
72 -40 3 6 -10 30 -29 55 -64 84 -80 144 -80 291 0 113 3 136 22 179 23 50
161 201 193 211 10 3 34 -1 54 -10 58 -24 69 -21 61 17 -3 18 -17 44 -30 58
-33 36 -34 44 -26 147 6 67 14 102 29 127 23 37 82 70 145 82 l39 7 -7 -29
c-4 -16 -10 -64 -13 -106 -4 -65 -3 -78 10 -78 10 0 17 15 22 48 3 26 11 64
16 84 8 32 13 36 37 35 23 -2 30 5 47 41 28 57 41 69 105 90 29 10 56 24 58
30 8 25 -65 11 -147 -28 -47 -21 -88 -37 -92 -34 -4 2 -13 30 -20 62 -19 90
12 172 96 256 56 56 91 71 170 70 55 0 83 -6 132 -28 78 -35 87 -46 72 -79
-11 -25 -43 -37 -96 -37 -44 0 -19 -25 28 -28 60 -4 69 -20 69 -116 0 -93 9
-117 35 -96 14 12 15 29 9 135 -7 138 -3 154 63 217 47 45 184 106 183 81 -2
-30 -51 -147 -73 -173 -45 -53 -28 -145 32 -169 33 -14 144 -8 171 9 21 13
-11 24 -53 17 -69 -11 -128 47 -97 96 7 12 18 49 26 83 16 80 44 133 89 172
30 27 44 32 85 32 27 0 75 -10 107 -22z m688 -10 c45 -39 73 -92 89 -172 8
-34 19 -71 26 -83 31 -49 -28 -107 -97 -96 -42 7 -74 -4 -53 -17 27 -17 138
-23 171 -9 60 24 77 116 32 169 -22 26 -71 143 -73 173 -1 25 136 -36 183 -81
66 -63 70 -79 63 -217 -6 -106 -5 -123 9 -135 26 -21 35 3 35 96 0 96 9 112
69 116 47 3 72 28 28 28 -53 0 -85 12 -96 37 -15 33 -6 44 72 79 49 22 77 28
132 28 79 1 114 -14 170 -70 84 -84 115 -166 96 -256 -7 -32 -16 -60 -20 -62
-4 -3 -45 13 -92 34 -82 39 -155 53 -147 28 2 -6 29 -20 58 -30 64 -21 77 -33
105 -90 17 -36 24 -43 47 -41 24 1 29 -3 37 -35 5 -20 13 -58 16 -84 5 -33 12
-48 22 -48 13 0 14 13 10 78 -3 42 -9 90 -13 106 l-7 29 39 -7 c63 -12 122
-45 145 -82 15 -25 23 -60 29 -127 8 -103 7 -111 -26 -147 -13 -14 -27 -40
-30 -58 -8 -38 3 -41 61 -17 20 9 44 13 54 10 32 -10 170 -161 193 -211 19
-43 22 -66 22 -179 0 -147 -16 -207 -80 -291 -19 -25 -32 -49 -29 -55 8 -13
45 7 72 40 l21 26 32 -30 c62 -58 87 -142 69 -224 -11 -52 -53 -121 -73 -121
-7 0 -18 19 -25 43 -31 103 -99 197 -142 197 -28 0 -23 -15 16 -59 46 -50 85
-138 92 -203 8 -84 -10 -133 -78 -203 -32 -34 -59 -67 -59 -73 0 -17 41 -15
66 2 33 24 94 119 107 168 9 35 25 57 70 98 35 32 63 50 72 46 45 -17 112
-179 100 -242 -8 -47 -67 -104 -149 -144 -61 -30 -71 -32 -131 -26 -57 6 -66
4 -71 -11 -18 -56 -69 -144 -106 -186 -38 -43 -54 -52 -137 -80 -109 -37 -128
-57 -53 -57 103 0 148 30 262 170 84 104 103 120 142 120 13 0 52 9 87 20 77
25 84 21 127 -73 73 -161 18 -335 -131 -415 l-50 -27 3 -80 c2 -66 -1 -86 -17
-112 -28 -45 -64 -65 -134 -75 -66 -9 -72 -12 -62 -27 11 -19 114 -12 191 13
18 5 24 1 33 -25 6 -18 11 -67 11 -110 0 -93 -20 -151 -87 -251 -74 -113 -162
-158 -307 -158 -110 0 -158 18 -251 96 -82 67 -95 74 -95 48 0 -17 47 -66 129
-136 38 -32 42 -41 36 -65 -7 -30 -38 -68 -70 -86 -11 -6 -54 -13 -95 -16 -66
-5 -75 -8 -75 -26 0 -18 8 -20 78 -23 130 -5 186 33 203 137 5 32 10 40 23 37
9 -2 46 -7 83 -11 67 -7 68 -7 62 -33 -29 -129 -61 -198 -113 -245 -129 -116
-415 -113 -566 7 l-20 16 20 12 c54 31 91 85 115 167 l23 81 48 -6 c37 -5 55
-2 74 10 44 29 32 46 -30 46 -62 0 -112 18 -157 55 -30 25 -68 34 -68 15 0 -6
14 -39 32 -73 54 -107 42 -175 -44 -238 -48 -34 -63 -34 -90 2 -18 24 -19 31
-8 82 15 65 7 115 -15 97 -8 -6 -17 -33 -21 -58 -14 -104 -51 -152 -157 -207
-59 -31 -74 -55 -34 -55 46 0 96 22 140 60 l46 40 105 -67 c57 -38 104 -71
103 -75 -5 -17 -207 -183 -243 -199 -22 -10 -72 -26 -110 -35 -122 -28 -216
-2 -267 74 -30 45 -47 47 -47 6 0 -35 -15 -30 -68 24 -68 67 -80 115 -59 234
8 50 18 92 20 95 3 2 30 -12 62 -32 61 -40 131 -59 123 -34 -2 8 -36 33 -74
56 -78 47 -144 112 -144 143 0 24 -3 24 51 3 32 -12 78 -17 169 -17 111 -1
130 1 167 21 72 39 119 98 147 186 4 13 16 17 51 17 93 0 140 55 151 177 l7
70 69 -35 c61 -30 82 -36 163 -40 126 -6 245 12 322 49 73 35 114 85 173 212
54 114 74 196 66 267 l-7 56 45 12 c62 16 142 92 164 157 l18 50 58 7 c32 4
65 13 72 19 15 12 19 65 6 73 -5 3 -32 -2 -61 -12 l-53 -17 -25 30 c-64 79
-63 78 -78 65 -19 -16 -11 -67 17 -122 19 -36 19 -37 0 -80 -27 -59 -67 -94
-148 -127 -61 -25 -69 -31 -66 -52 18 -153 10 -202 -55 -337 -74 -150 -183
-207 -398 -207 -108 0 -125 3 -175 26 -30 14 -86 51 -124 83 -81 66 -100 62
-62 -12 45 -89 30 -223 -27 -237 -12 -3 -49 -9 -82 -13 l-60 -7 -11 -46 c-32
-129 -103 -184 -252 -195 -64 -5 -87 -2 -134 15 -78 30 -128 86 -128 144 0 25
8 56 21 77 l21 34 16 -29 c30 -60 57 -60 49 -1 -6 43 -6 43 32 58 70 28 77 49
63 207 -7 75 -24 234 -39 353 -25 208 -25 219 -9 237 19 21 14 41 -9 41 -15 0
-22 23 -31 113 -8 77 -6 78 65 43 58 -30 224 -96 240 -96 20 0 12 18 -16 38
-16 11 -66 36 -111 55 -99 43 -176 99 -195 141 -8 17 -24 112 -37 212 -26 210
-23 223 54 268 24 14 69 55 100 90 78 88 106 100 217 91 92 -7 117 3 59 24
-56 19 -84 137 -57 232 23 76 35 90 90 96 47 6 47 5 63 -33 61 -143 58 -318
-6 -444 l-20 -39 -36 24 c-66 45 -89 29 -39 -27 19 -21 35 -43 35 -50 0 -13
-88 -101 -139 -139 l-35 -26 22 -38 c13 -20 21 -40 18 -42 -2 -2 -21 0 -43 6
-21 6 -67 11 -101 11 -59 0 -66 -2 -98 -34 -26 -26 -34 -42 -34 -70 0 -20 2
-36 5 -36 3 0 30 22 60 50 74 67 92 70 167 30 l62 -32 56 61 c49 53 61 61 92
61 43 0 85 -15 111 -38 18 -16 16 -18 -29 -57 l-48 -42 28 -36 c16 -20 33 -37
39 -37 5 0 30 16 53 36 l44 35 12 -28 c7 -15 12 -62 12 -103 -1 -59 -6 -87
-27 -132 -15 -31 -27 -60 -27 -63 0 -3 12 -5 27 -3 35 4 51 36 62 123 4 36 13
71 20 78 7 7 42 12 90 12 70 0 85 -4 152 -38 41 -20 79 -37 85 -37 6 0 23 26
38 59 35 76 53 91 132 111 71 18 86 33 37 38 -87 9 -199 -61 -225 -140 -3 -8
-29 -2 -79 16 -77 28 -137 35 -199 23 l-35 -7 -20 64 -20 63 37 49 c62 80 127
217 154 322 26 102 33 248 19 365 l-7 55 51 11 c89 19 121 43 121 89 -1 43
-17 46 -62 10 -87 -71 -121 -76 -139 -20 -34 104 -117 241 -200 327 -21 22
-41 55 -45 72 -6 31 -6 32 42 39 57 8 91 23 118 53 16 17 31 21 83 21 66 0
103 20 103 56 0 13 -6 15 -32 10 -18 -4 -49 -9 -69 -12 l-36 -6 -7 72 c-7 82
-20 112 -68 156 -34 32 -78 50 -78 32 0 -5 15 -28 34 -51 49 -61 59 -85 60
-142 1 -67 -19 -96 -85 -129 -66 -32 -90 -33 -127 -1 -54 45 -70 25 -28 -36
l24 -35 -86 42 c-129 63 -127 63 -142 9 -13 -45 -13 -45 -28 -23 -22 33 -64
78 -74 78 -12 0 -10 -28 6 -58 33 -65 32 -69 -26 -76 -29 -3 -65 -6 -79 -7
-23 0 -28 -6 -38 -46 -14 -52 -11 -56 44 -73 77 -24 174 -82 234 -141 94 -92
79 -100 -39 -22 -38 25 -76 43 -93 43 -26 0 -24 -4 44 -69 l72 -69 -33 -57
c-28 -50 -33 -68 -34 -129 -1 -41 5 -85 13 -104 17 -41 10 -48 -59 -55 l-55
-5 -1 77 c-1 54 -7 90 -22 124 -28 62 -105 138 -164 162 l-48 20 0 77 c0 50 9
112 26 177 21 83 24 106 15 138 -6 21 -11 50 -11 64 0 49 79 101 205 134 83
21 113 19 242 -17 82 -23 116 -29 124 -21 16 16 -11 28 -126 58 -135 35 -213
34 -312 -6 -46 -18 -86 -28 -100 -25 -27 7 -70 67 -84 119 -9 33 -7 46 16 95
39 85 98 157 168 203 66 44 87 65 87 86 0 25 -28 13 -106 -47 -43 -33 -81 -60
-85 -60 -4 0 -9 10 -12 23 -27 111 -13 210 36 263 41 45 136 83 204 84 45 0
58 -5 88 -32z m-376 -756 l24 -22 -27 -29 c-38 -40 -47 -103 -18 -134 l22 -23
-20 -83 c-12 -48 -20 -117 -20 -167 0 -83 0 -84 -25 -84 -25 0 -25 1 -25 84 0
50 -8 119 -20 167 l-20 83 22 23 c29 31 20 94 -18 134 l-27 29 25 23 c14 13
33 36 43 51 l19 28 20 -28 c12 -16 32 -39 45 -52z m436 -212 c22 -11 31 -18
20 -14 -11 3 -37 8 -57 11 -21 3 -38 10 -38 14 0 15 33 10 75 -11z m-902 -63
c-229 -119 -373 -345 -373 -587 0 -84 27 -205 59 -269 12 -22 21 -42 21 -45 0
-11 -86 26 -107 46 -12 11 -27 36 -33 54 -10 28 -8 40 15 88 l26 56 -33 58
c-27 47 -32 67 -31 113 1 67 9 84 79 166 28 34 71 99 95 144 80 151 158 207
289 208 l55 0 -62 -32z m897 17 c69 -20 130 -83 189 -193 24 -45 67 -110 95
-144 70 -82 78 -99 79 -166 1 -46 -4 -66 -31 -113 l-33 -58 26 -56 c23 -48 25
-60 15 -88 -6 -18 -21 -43 -33 -54 -22 -21 -106 -56 -114 -48 -3 2 5 23 17 46
32 64 60 185 60 264 -1 249 -137 465 -374 592 l-61 34 56 0 c30 0 79 -7 109
-16z m246 -133 c53 -64 141 -218 130 -228 -12 -12 -104 100 -151 183 -27 49
-68 109 -90 133 l-40 45 49 -35 c27 -18 73 -63 102 -98z m-1229 -247 c26 -36
46 -124 39 -177 -11 -77 -31 -116 -66 -128 -58 -21 -33 -31 58 -24 l89 7 30
-54 c34 -60 93 -117 150 -147 82 -41 88 -63 64 -232 l-13 -85 -33 33 c-30 30
-38 33 -95 33 -33 0 -81 -5 -106 -11 -25 -6 -47 -9 -50 -7 -3 3 5 23 18 43
l22 38 -35 26 c-46 35 -139 122 -139 131 0 4 18 28 41 54 32 36 37 47 26 52
-17 6 -52 -9 -83 -38 -21 -19 -21 -19 -47 39 -37 86 -47 129 -47 218 0 83 18
173 46 227 15 29 18 30 67 25 34 -3 55 -11 64 -23z m-384 -243 l27 -40 -25
-37 c-75 -111 27 -264 176 -264 32 0 79 -56 79 -93 0 -20 -12 -30 -62 -55 -72
-36 -71 -36 -127 48 -97 145 -145 336 -126 506 l7 69 13 -47 c6 -26 24 -65 38
-87z m1793 -45 c-4 -50 -11 -107 -15 -126 l-9 -35 -1 46 c-1 31 -9 58 -26 83
l-24 36 29 47 c17 26 30 54 30 62 1 13 3 12 12 -3 7 -13 8 -50 4 -110z m-36
-213 c-18 -57 -86 -183 -119 -224 l-30 -36 -61 30 c-55 27 -60 33 -60 62 0 46
34 85 73 85 75 0 154 42 184 97 22 42 28 35 13 -14z"/>
<path d="M889 3593 c-20 -52 -29 -138 -23 -209 l6 -70 -51 -62 c-29 -34 -55
-62 -60 -62 -5 0 -21 28 -36 62 -46 103 -34 211 32 280 32 33 25 45 -14 25
-59 -31 -85 -71 -92 -138 l-6 -63 -76 -12 c-93 -16 -128 -29 -136 -50 -11 -30
14 -39 54 -20 93 45 158 43 168 -3 3 -15 21 -50 39 -78 37 -56 37 -56 -20
-130 -17 -23 -40 -65 -49 -92 -9 -28 -19 -51 -22 -51 -3 0 -23 15 -44 34 -45
38 -112 59 -158 50 -38 -8 -40 -22 -3 -30 89 -20 108 -29 152 -70 l47 -44 -8
-51 c-11 -70 6 -194 35 -252 l23 -48 -36 -15 c-63 -26 -121 -95 -121 -144 0
-35 26 -22 69 35 23 30 58 63 79 74 l37 19 60 -62 c34 -34 81 -72 106 -84 120
-58 154 -27 37 35 -179 94 -274 267 -248 451 11 82 46 180 86 243 39 62 132
158 175 179 56 29 62 40 43 91 -30 81 -32 106 -18 181 14 72 11 108 -7 108 -5
0 -14 -12 -20 -27z"/>
<path d="M1454 1819 c-15 -16 -19 -36 -19 -90 0 -41 5 -73 13 -81 6 -6 12 -18
12 -26 0 -12 -11 -13 -52 -8 -91 12 -156 38 -209 83 -57 49 -69 52 -69 21 0
-31 71 -93 134 -117 83 -31 221 -38 284 -16 l51 19 72 -29 c75 -29 139 -38
146 -19 2 5 -20 18 -50 27 -29 9 -68 28 -87 42 -28 20 -45 25 -97 25 -56 0
-64 3 -79 25 -17 26 -16 107 1 148 11 25 -27 23 -51 -4z"/>
<path d="M856 1748 c-23 -35 -47 -134 -53 -219 -5 -74 -5 -76 26 -112 18 -19
48 -41 67 -47 49 -16 146 -15 179 2 26 14 32 12 104 -24 97 -50 219 -68 338
-51 43 6 81 9 85 7 5 -3 8 -31 8 -63 0 -44 5 -62 21 -80 37 -40 106 -54 128
-27 10 11 1 21 -46 52 l-58 39 0 55 c0 54 0 55 48 86 61 40 97 74 97 91 0 24
-30 13 -84 -31 -144 -117 -378 -122 -538 -11 l-61 43 -38 -20 c-44 -23 -143
-27 -178 -8 -29 15 -61 68 -61 100 0 14 11 65 25 115 14 49 25 98 25 107 0 25
-17 22 -34 -4z"/>
<path d="M3246 3603 c-3 -10 0 -51 8 -91 14 -75 12 -100 -18 -181 -19 -51 -13
-62 43 -91 43 -21 136 -117 175 -179 40 -63 75 -161 86 -243 26 -184 -69 -357
-248 -451 -117 -62 -83 -93 37 -35 25 12 72 50 106 84 l60 62 37 -19 c21 -11
56 -44 79 -74 43 -57 69 -70 69 -35 0 49 -58 118 -121 144 l-36 15 23 48 c29
58 46 182 35 252 l-8 51 47 44 c44 41 63 50 153 70 36 8 34 22 -4 30 -46 9
-113 -12 -158 -50 -21 -19 -41 -34 -44 -34 -3 0 -13 23 -22 51 -9 27 -32 69
-49 92 -57 74 -57 74 -20 130 18 28 36 63 39 78 10 46 75 48 168 3 40 -19 65
-10 54 20 -8 21 -43 34 -136 50 l-76 12 -6 63 c-7 67 -33 107 -92 138 -39 20
-46 8 -14 -25 66 -69 78 -177 32 -280 -15 -34 -31 -62 -36 -62 -4 0 -29 25
-56 57 l-48 56 -1 116 c-2 114 -17 190 -41 198 -6 2 -14 -4 -17 -14z"/>
<path d="M2665 1823 c17 -41 18 -122 1 -148 -15 -22 -23 -25 -79 -25 -52 0
-69 -5 -97 -25 -19 -14 -58 -33 -87 -42 -30 -9 -52 -22 -50 -27 7 -19 71 -10
146 19 l72 29 51 -19 c63 -22 201 -15 284 16 63 24 134 86 134 117 0 31 -12
28 -69 -21 -53 -45 -118 -71 -208 -83 -42 -5 -53 -4 -53 8 0 8 6 20 12 26 8 8
13 40 13 81 0 54 -4 74 -19 90 -24 27 -62 29 -51 4z"/>
<path d="M3280 1753 c0 -10 11 -59 25 -108 14 -50 25 -101 25 -115 0 -32 -32
-85 -61 -100 -35 -19 -134 -15 -178 8 l-38 20 -61 -43 c-160 -111 -394 -106
-538 11 -54 44 -84 55 -84 31 0 -17 36 -51 97 -91 48 -31 48 -32 48 -86 l0
-55 -58 -39 c-47 -31 -56 -41 -46 -52 22 -27 91 -13 128 27 16 18 21 36 21 80
0 32 3 60 8 63 4 2 42 -1 85 -7 119 -17 241 1 338 51 72 36 78 38 104 24 33
-17 130 -18 179 -2 19 6 49 27 66 46 25 29 30 43 30 84 0 62 -26 185 -48 229
-19 39 -42 52 -42 24z"/>
</g>
</svg>
